<svg xmlns="http://www.w3.org/2000/svg" xmlns:xlink="http://www.w3.org/1999/xlink" width="500" zoomAndPan="magnify" viewBox="0 0 375 374.999991" height="500" preserveAspectRatio="xMidYMid meet" version="1.0"><defs><g/><clipPath id="9d713c4c51"><path d="M 29.542969 91.726562 L 352.792969 91.726562 L 352.792969 353.9375 L 29.542969 353.9375 Z M 29.542969 91.726562 " clip-rule="nonzero"/></clipPath><clipPath id="3227c316c8"><path d="M 165 119.78125 L 219 119.78125 L 219 147 L 165 147 Z M 165 119.78125 " clip-rule="nonzero"/></clipPath><clipPath id="d2daade176"><path d="M 92.398438 143 L 290.398438 143 L 290.398438 250.28125 L 92.398438 250.28125 Z M 92.398438 143 " clip-rule="nonzero"/></clipPath><clipPath id="417e4f8eaa"><path d="M 92.398438 143 L 119 143 L 119 170 L 92.398438 170 Z M 92.398438 143 " clip-rule="nonzero"/></clipPath><clipPath id="f4a43368f7"><path d="M 264 144 L 290.398438 144 L 290.398438 170 L 264 170 Z M 264 144 " clip-rule="nonzero"/></clipPath><clipPath id="a4a0b43ed3"><path d="M 92.398438 224 L 119 224 L 119 250.28125 L 92.398438 250.28125 Z M 92.398438 224 " clip-rule="nonzero"/></clipPath><clipPath id="d30106ab03"><path d="M 264 224 L 290.398438 224 L 290.398438 250.28125 L 264 250.28125 Z M 264 224 " clip-rule="nonzero"/></clipPath><clipPath id="05eaf085f5"><path d="M 137 144 L 141 144 L 141 250.28125 L 137 250.28125 Z M 137 144 " clip-rule="nonzero"/></clipPath><clipPath id="39f26a4689"><path d="M 154 144 L 157 144 L 157 250.28125 L 154 250.28125 Z M 154 144 " clip-rule="nonzero"/></clipPath><clipPath id="b0f271d596"><path d="M 227 144 L 230 144 L 230 250.28125 L 227 250.28125 Z M 227 144 " clip-rule="nonzero"/></clipPath><clipPath id="b9970caeb4"><path d="M 243 144 L 246 144 L 246 250.28125 L 243 250.28125 Z M 243 144 " clip-rule="nonzero"/></clipPath></defs><g clip-path="url(#9d713c4c51)"><path fill="#ffffff" d="M 191.167969 353.9375 C 102.078125 353.9375 29.542969 281.40625 29.542969 192.3125 C 29.542969 103.222656 102.078125 30.6875 191.167969 30.6875 C 280.261719 30.6875 352.792969 103.222656 352.792969 192.3125 C 352.792969 281.40625 280.261719 353.9375 191.167969 353.9375 Z M 191.167969 33.078125 C 103.351562 33.078125 31.933594 104.496094 31.933594 192.3125 C 31.933594 280.132812 103.351562 351.550781 191.167969 351.550781 C 278.988281 351.550781 350.40625 280.132812 350.40625 192.3125 C 350.40625 104.496094 278.988281 33.078125 191.167969 33.078125 Z M 191.167969 33.078125 " fill-opacity="1" fill-rule="nonzero"/></g><g clip-path="url(#3227c316c8)"><path fill="#ffffff" d="M 217.367188 146.191406 L 167.070312 146.191406 C 166.464844 146.191406 165.988281 145.71875 165.988281 145.113281 L 165.988281 123.414062 C 165.988281 121.425781 167.632812 119.78125 169.625 119.78125 L 214.816406 119.78125 C 216.804688 119.78125 218.449219 121.425781 218.449219 123.414062 L 218.449219 145.113281 C 218.449219 145.675781 217.929688 146.191406 217.367188 146.191406 Z M 168.152344 144.03125 L 216.285156 144.03125 L 216.285156 123.414062 C 216.285156 122.589844 215.636719 121.941406 214.816406 121.941406 L 169.625 121.941406 C 168.800781 121.941406 168.152344 122.589844 168.152344 123.414062 Z M 168.152344 144.03125 " fill-opacity="1" fill-rule="nonzero"/></g><g clip-path="url(#d2daade176)"><path fill="#ffffff" d="M 265.414062 250.28125 L 116.816406 250.28125 C 116.515625 250.28125 116.210938 250.152344 115.996094 249.890625 C 115.777344 249.632812 115.691406 249.332031 115.734375 249.027344 C 115.90625 248.035156 115.949219 247.039062 115.949219 246.003906 C 115.949219 235.195312 107.121094 226.378906 96.300781 226.378906 C 95.433594 226.378906 94.566406 226.421875 93.703125 226.550781 C 93.398438 226.59375 93.097656 226.507812 92.835938 226.289062 C 92.621094 226.117188 92.492188 225.816406 92.492188 225.511719 L 92.492188 168.582031 C 92.492188 168.28125 92.621094 167.980469 92.878906 167.761719 C 93.097656 167.546875 93.441406 167.460938 93.746094 167.503906 C 94.613281 167.632812 95.476562 167.675781 96.34375 167.675781 C 107.164062 167.675781 115.996094 158.859375 115.996094 148.050781 C 115.996094 147.101562 115.90625 146.148438 115.777344 145.242188 C 115.734375 144.9375 115.820312 144.59375 116.039062 144.378906 C 116.253906 144.117188 116.558594 143.988281 116.859375 143.988281 L 265.457031 143.988281 C 265.761719 143.988281 266.0625 144.117188 266.28125 144.378906 C 266.496094 144.636719 266.582031 144.9375 266.539062 145.242188 C 266.410156 146.148438 266.324219 147.101562 266.324219 148.050781 C 266.324219 158.859375 275.152344 167.675781 285.976562 167.675781 C 287.015625 167.675781 288.011719 167.589844 289.09375 167.417969 C 289.394531 167.375 289.742188 167.460938 289.957031 167.675781 C 290.21875 167.890625 290.347656 168.195312 290.347656 168.496094 L 290.347656 225.554688 C 290.347656 225.859375 290.21875 226.160156 289.957031 226.378906 C 289.699219 226.59375 289.394531 226.679688 289.09375 226.636719 C 288.054688 226.464844 287.015625 226.378906 285.976562 226.378906 C 275.152344 226.378906 266.324219 235.195312 266.324219 246.003906 C 266.324219 247.039062 266.410156 248.035156 266.539062 249.027344 C 266.582031 249.332031 266.496094 249.675781 266.28125 249.890625 C 266.0625 250.152344 265.761719 250.28125 265.414062 250.28125 Z M 118.027344 248.121094 L 264.203125 248.121094 C 264.117188 247.429688 264.117188 246.695312 264.117188 246.003906 C 264.117188 233.984375 273.898438 224.214844 285.933594 224.214844 C 286.667969 224.214844 287.402344 224.257812 288.140625 224.34375 L 288.140625 169.75 C 287.402344 169.835938 286.667969 169.878906 285.933594 169.878906 C 273.898438 169.878906 264.117188 160.113281 264.117188 148.09375 C 264.117188 147.445312 264.160156 146.839844 264.203125 146.191406 L 118.027344 146.191406 C 118.070312 146.796875 118.117188 147.445312 118.117188 148.09375 C 118.117188 160.671875 107.421875 170.789062 94.65625 169.792969 L 94.65625 224.300781 C 95.21875 224.257812 95.78125 224.257812 96.300781 224.257812 C 108.332031 224.257812 118.117188 234.027344 118.117188 246.046875 C 118.117188 246.738281 118.117188 247.429688 118.027344 248.121094 Z M 118.027344 248.121094 " fill-opacity="1" fill-rule="nonzero"/></g><g clip-path="url(#417e4f8eaa)"><path fill="#ffffff" d="M 96.300781 169.835938 C 95.347656 169.835938 94.394531 169.792969 93.398438 169.664062 C 92.878906 169.578125 92.445312 169.144531 92.445312 168.582031 L 92.445312 160.066406 C 92.445312 151.207031 99.675781 143.988281 108.550781 143.988281 L 116.816406 143.988281 C 117.335938 143.988281 117.8125 144.378906 117.898438 144.894531 C 118.070312 145.890625 118.117188 146.972656 118.117188 148.007812 C 118.117188 160.066406 108.332031 169.835938 96.300781 169.835938 Z M 94.65625 167.632812 C 95.21875 167.675781 95.78125 167.71875 96.300781 167.71875 C 107.121094 167.71875 115.949219 158.902344 115.949219 148.09375 C 115.949219 147.445312 115.90625 146.839844 115.863281 146.191406 L 108.59375 146.191406 C 100.886719 146.191406 94.65625 152.417969 94.65625 160.066406 Z M 94.65625 167.632812 " fill-opacity="1" fill-rule="nonzero"/></g><g clip-path="url(#f4a43368f7)"><path fill="#ffffff" d="M 285.933594 169.835938 C 273.898438 169.835938 264.117188 160.066406 264.117188 148.050781 C 264.117188 146.972656 264.203125 145.933594 264.332031 144.9375 C 264.417969 144.421875 264.851562 144.03125 265.414062 144.03125 L 274.203125 144.03125 C 283.074219 144.03125 290.261719 151.25 290.261719 160.113281 L 290.261719 168.539062 C 290.261719 169.058594 289.871094 169.535156 289.351562 169.621094 C 288.183594 169.75 287.058594 169.835938 285.933594 169.835938 Z M 289.222656 168.496094 Z M 266.367188 146.191406 C 266.324219 146.796875 266.28125 147.445312 266.28125 148.09375 C 266.28125 158.902344 275.109375 167.71875 285.933594 167.71875 C 286.667969 167.71875 287.402344 167.675781 288.140625 167.589844 L 288.140625 160.066406 C 288.140625 152.417969 281.90625 146.148438 274.246094 146.148438 L 266.367188 146.148438 Z M 266.367188 146.191406 " fill-opacity="1" fill-rule="nonzero"/></g><g clip-path="url(#a4a0b43ed3)"><path fill="#ffffff" d="M 116.816406 250.28125 L 107.554688 250.28125 C 99.242188 250.28125 92.492188 243.539062 92.492188 235.28125 L 92.492188 225.511719 C 92.492188 224.949219 92.878906 224.519531 93.441406 224.433594 C 94.394531 224.300781 95.390625 224.257812 96.34375 224.257812 C 108.375 224.257812 118.160156 234.027344 118.160156 246.046875 C 118.160156 247.167969 118.070312 248.335938 117.898438 249.417969 C 117.769531 249.890625 117.335938 250.28125 116.816406 250.28125 Z M 94.65625 226.464844 L 94.65625 235.28125 C 94.65625 242.371094 100.453125 248.164062 107.554688 248.164062 L 115.863281 248.164062 C 115.949219 247.472656 115.996094 246.738281 115.996094 246.046875 C 115.996094 235.238281 107.164062 226.421875 96.34375 226.421875 C 95.78125 226.421875 95.21875 226.421875 94.65625 226.464844 Z M 94.65625 226.464844 " fill-opacity="1" fill-rule="nonzero"/></g><g clip-path="url(#d30106ab03)"><path fill="#ffffff" d="M 275.242188 250.28125 L 265.457031 250.28125 C 264.9375 250.28125 264.460938 249.890625 264.375 249.375 C 264.203125 248.292969 264.117188 247.125 264.117188 246.003906 C 264.117188 233.984375 273.898438 224.214844 285.933594 224.214844 C 287.101562 224.214844 288.226562 224.300781 289.394531 224.476562 C 289.914062 224.5625 290.304688 224.992188 290.304688 225.554688 L 290.304688 235.238281 C 290.304688 243.539062 283.550781 250.28125 275.242188 250.28125 Z M 266.367188 248.121094 L 275.199219 248.121094 C 282.296875 248.121094 288.097656 242.328125 288.097656 235.238281 L 288.097656 226.507812 C 287.359375 226.421875 286.625 226.378906 285.890625 226.378906 C 275.066406 226.378906 266.238281 235.195312 266.238281 246.003906 C 266.28125 246.738281 266.324219 247.429688 266.367188 248.121094 Z M 266.367188 248.121094 " fill-opacity="1" fill-rule="nonzero"/></g><g clip-path="url(#05eaf085f5)"><path fill="#ffffff" d="M 139.023438 250.109375 C 138.417969 250.109375 137.941406 249.632812 137.941406 249.027344 L 137.941406 145.542969 C 137.941406 144.9375 138.417969 144.464844 139.023438 144.464844 C 139.628906 144.464844 140.105469 144.9375 140.105469 145.542969 L 140.105469 249.027344 C 140.105469 249.632812 139.628906 250.109375 139.023438 250.109375 Z M 139.023438 250.109375 " fill-opacity="1" fill-rule="nonzero"/></g><g clip-path="url(#39f26a4689)"><path fill="#ffffff" d="M 155.210938 250.109375 C 154.605469 250.109375 154.128906 249.632812 154.128906 249.027344 L 154.128906 145.542969 C 154.128906 144.9375 154.605469 144.464844 155.210938 144.464844 C 155.816406 144.464844 156.292969 144.9375 156.292969 145.542969 L 156.292969 249.027344 C 156.292969 249.632812 155.816406 250.109375 155.210938 250.109375 Z M 155.210938 250.109375 " fill-opacity="1" fill-rule="nonzero"/></g><path fill="#ffffff" d="M 159.105469 175.671875 L 135.34375 175.671875 C 134.738281 175.671875 134.261719 175.199219 134.261719 174.59375 C 134.261719 173.988281 134.738281 173.511719 135.34375 173.511719 L 159.105469 173.511719 C 159.710938 173.511719 160.1875 173.988281 160.1875 174.59375 C 160.1875 175.199219 159.710938 175.671875 159.105469 175.671875 Z M 159.105469 175.671875 " fill-opacity="1" fill-rule="nonzero"/><path fill="#ffffff" d="M 159.105469 222.355469 L 135.34375 222.355469 C 134.738281 222.355469 134.261719 221.882812 134.261719 221.277344 C 134.261719 220.671875 134.738281 220.195312 135.34375 220.195312 L 159.105469 220.195312 C 159.710938 220.195312 160.1875 220.671875 160.1875 221.277344 C 160.1875 221.882812 159.710938 222.355469 159.105469 222.355469 Z M 159.105469 222.355469 " fill-opacity="1" fill-rule="nonzero"/><g clip-path="url(#b0f271d596)"><path fill="#ffffff" d="M 228.492188 250.109375 C 227.886719 250.109375 227.410156 249.632812 227.410156 249.027344 L 227.410156 145.542969 C 227.410156 144.9375 227.886719 144.464844 228.492188 144.464844 C 229.097656 144.464844 229.574219 144.9375 229.574219 145.542969 L 229.574219 249.027344 C 229.574219 249.632812 229.097656 250.109375 228.492188 250.109375 Z M 228.492188 250.109375 " fill-opacity="1" fill-rule="nonzero"/></g><g clip-path="url(#b9970caeb4)"><path fill="#ffffff" d="M 244.722656 250.109375 C 244.117188 250.109375 243.640625 249.632812 243.640625 249.027344 L 243.640625 145.542969 C 243.640625 144.9375 244.117188 144.464844 244.722656 144.464844 C 245.332031 144.464844 245.808594 144.9375 245.808594 145.542969 L 245.808594 249.027344 C 245.808594 249.632812 245.332031 250.109375 244.722656 250.109375 Z M 244.722656 250.109375 " fill-opacity="1" fill-rule="nonzero"/></g><path fill="#ffffff" d="M 248.621094 175.671875 L 224.855469 175.671875 C 224.25 175.671875 223.773438 175.199219 223.773438 174.59375 C 223.773438 173.988281 224.25 173.511719 224.855469 173.511719 L 248.621094 173.511719 C 249.226562 173.511719 249.703125 173.988281 249.703125 174.59375 C 249.703125 175.199219 249.183594 175.671875 248.621094 175.671875 Z M 248.621094 175.671875 " fill-opacity="1" fill-rule="nonzero"/><path fill="#ffffff" d="M 248.621094 222.355469 L 224.855469 222.355469 C 224.25 222.355469 223.773438 221.882812 223.773438 221.277344 C 223.773438 220.671875 224.25 220.195312 224.855469 220.195312 L 248.621094 220.195312 C 249.226562 220.195312 249.703125 220.671875 249.703125 221.277344 C 249.703125 221.882812 249.183594 222.355469 248.621094 222.355469 Z M 248.621094 222.355469 " fill-opacity="1" fill-rule="nonzero"/><g fill="#ffffff" fill-opacity="1"><g transform="translate(83.433367, 95.015398)"><g><path d="M 6.984375 -6.640625 C 5.828125 -5.492188 4.53125 -4.582031 3.09375 -3.90625 C 1.664062 -3.226562 0.363281 -2.910156 -0.8125 -2.953125 L -1.4375 -4.859375 C -0.3125 -4.847656 0.890625 -5.128906 2.171875 -5.703125 C 3.460938 -6.285156 4.601562 -7.070312 5.59375 -8.0625 C 6.988281 -9.4375 7.785156 -10.722656 7.984375 -11.921875 C 8.179688 -13.128906 7.875 -14.144531 7.0625 -14.96875 C 6.445312 -15.59375 5.765625 -15.90625 5.015625 -15.90625 C 4.265625 -15.90625 3.515625 -15.734375 2.765625 -15.390625 C 2.015625 -15.046875 1.035156 -14.503906 -0.171875 -13.765625 C -1.648438 -12.910156 -2.875 -12.273438 -3.84375 -11.859375 C -4.820312 -11.441406 -5.835938 -11.269531 -6.890625 -11.34375 C -7.953125 -11.414062 -8.960938 -11.941406 -9.921875 -12.921875 C -10.691406 -13.703125 -11.191406 -14.617188 -11.421875 -15.671875 C -11.648438 -16.734375 -11.519531 -17.882812 -11.03125 -19.125 C -10.550781 -20.375 -9.671875 -21.628906 -8.390625 -22.890625 C -7.503906 -23.773438 -6.507812 -24.515625 -5.40625 -25.109375 C -4.300781 -25.710938 -3.222656 -26.109375 -2.171875 -26.296875 L -1.40625 -24.4375 C -2.507812 -24.21875 -3.539062 -23.847656 -4.5 -23.328125 C -5.457031 -22.804688 -6.289062 -22.191406 -7 -21.484375 C -8.375 -20.128906 -9.144531 -18.84375 -9.3125 -17.625 C -9.476562 -16.414062 -9.148438 -15.398438 -8.328125 -14.578125 C -7.710938 -13.941406 -7.023438 -13.617188 -6.265625 -13.609375 C -5.515625 -13.609375 -4.75 -13.789062 -3.96875 -14.15625 C -3.195312 -14.519531 -2.210938 -15.066406 -1.015625 -15.796875 C 0.410156 -16.640625 1.613281 -17.273438 2.59375 -17.703125 C 3.582031 -18.128906 4.597656 -18.300781 5.640625 -18.21875 C 6.679688 -18.132812 7.675781 -17.617188 8.625 -16.671875 C 9.40625 -15.878906 9.898438 -14.945312 10.109375 -13.875 C 10.328125 -12.8125 10.179688 -11.65625 9.671875 -10.40625 C 9.160156 -9.15625 8.265625 -7.898438 6.984375 -6.640625 Z M 6.984375 -6.640625 "/></g></g></g><g fill="#ffffff" fill-opacity="1"><g transform="translate(97.834729, 80.283788)"><g><path d="M 9.375 -33.078125 L 21.796875 -14.921875 L 19.953125 -13.65625 L 10.015625 -28.171875 L 11.25 -11.09375 L 10.34375 -10.46875 L -5.09375 -17.71875 L 4.796875 -3.28125 L 2.953125 -2.015625 L -9.46875 -20.171875 L -7.890625 -21.265625 L 9.203125 -13.1875 L 7.8125 -32 Z M 9.375 -33.078125 "/></g></g></g><g fill="#ffffff" fill-opacity="1"><g transform="translate(123.775353, 63.086614)"><g><path d="M 13.59375 -12.328125 L 2.359375 -7.4375 L 2.28125 -0.984375 L 0.0625 -0.03125 L 0.5 -24.21875 L 2.59375 -25.125 L 20.59375 -8.96875 L 18.34375 -7.984375 Z M 12.0625 -13.71875 L 2.5 -22.4375 L 2.375 -9.515625 Z M 12.0625 -13.71875 "/></g></g></g><g fill="#ffffff" fill-opacity="1"><g transform="translate(145.701782, 53.651138)"><g><path d="M 18.046875 -4.515625 L 11.453125 -10.140625 C 10.921875 -9.941406 10.359375 -9.769531 9.765625 -9.625 L 4.046875 -8.203125 L 5.734375 -1.4375 L 3.46875 -0.875 L -1.875 -22.21875 L 6.109375 -24.203125 C 8.835938 -24.890625 11.132812 -24.773438 13 -23.859375 C 14.875 -22.941406 16.097656 -21.34375 16.671875 -19.0625 C 17.085938 -17.394531 17.015625 -15.878906 16.453125 -14.515625 C 15.898438 -13.160156 14.910156 -12.039062 13.484375 -11.15625 L 20.515625 -5.125 Z M 9.234375 -11.53125 C 11.335938 -12.0625 12.832031 -12.929688 13.71875 -14.140625 C 14.601562 -15.359375 14.835938 -16.8125 14.421875 -18.5 C 13.984375 -20.226562 13.085938 -21.414062 11.734375 -22.0625 C 10.390625 -22.707031 8.664062 -22.765625 6.5625 -22.234375 L 0.890625 -20.828125 L 3.5625 -10.125 Z M 9.234375 -11.53125 "/></g></g></g><g fill="#ffffff" fill-opacity="1"><g transform="translate(169.216575, 48.068674)"><g><path d="M 5.953125 -20.625 L -1.75 -19.90625 L -1.9375 -21.921875 L 15.765625 -23.578125 L 15.953125 -21.5625 L 8.265625 -20.84375 L 10.140625 -0.953125 L 7.828125 -0.734375 Z M 5.953125 -20.625 "/></g></g></g><g fill="#ffffff" fill-opacity="1"><g transform="translate(189.058115, 46.552821)"><g/></g></g><g fill="#ffffff" fill-opacity="1"><g transform="translate(199.081457, 46.357578)"><g><path d="M 24.484375 -19.0625 L 12.03125 1.53125 L 9.75 1.234375 L 2.875 -21.8125 L 5.375 -21.5 L 11.296875 -1.484375 L 22.140625 -19.359375 Z M 24.484375 -19.0625 "/></g></g></g><g fill="#ffffff" fill-opacity="1"><g transform="translate(222.17964, 49.387107)"><g><path d="M 18.328125 -0.65625 L 6.578125 -4.15625 L 2.375 0.703125 L 0.0625 0.015625 L 15.984375 -18.1875 L 18.171875 -17.53125 L 21.53125 6.421875 L 19.1875 5.71875 Z M 18.0625 -2.71875 L 16.375 -15.546875 L 7.9375 -5.734375 Z M 18.0625 -2.71875 "/></g></g></g><g fill="#ffffff" fill-opacity="1"><g transform="translate(245.026254, 56.3126)"><g><path d="M 11.71875 5.953125 C 9.757812 4.984375 8.207031 3.679688 7.0625 2.046875 C 5.914062 0.421875 5.269531 -1.375 5.125 -3.34375 C 4.976562 -5.320312 5.367188 -7.257812 6.296875 -9.15625 C 7.234375 -11.0625 8.523438 -12.5625 10.171875 -13.65625 C 11.816406 -14.75 13.640625 -15.34375 15.640625 -15.4375 C 17.640625 -15.53125 19.617188 -15.09375 21.578125 -14.125 C 23.035156 -13.414062 24.265625 -12.507812 25.265625 -11.40625 C 26.273438 -10.3125 26.984375 -9.085938 27.390625 -7.734375 L 25.40625 -7.046875 C 24.632812 -9.359375 23.078125 -11.09375 20.734375 -12.25 C 19.171875 -13.007812 17.570312 -13.347656 15.9375 -13.265625 C 14.300781 -13.179688 12.816406 -12.695312 11.484375 -11.8125 C 10.148438 -10.925781 9.101562 -9.707031 8.34375 -8.15625 C 7.59375 -6.613281 7.273438 -5.039062 7.390625 -3.4375 C 7.515625 -1.84375 8.039062 -0.378906 8.96875 0.953125 C 9.90625 2.296875 11.15625 3.347656 12.71875 4.109375 C 15.082031 5.265625 17.410156 5.429688 19.703125 4.609375 L 20.390625 6.578125 C 19.066406 7.097656 17.65625 7.300781 16.15625 7.1875 C 14.664062 7.070312 13.1875 6.660156 11.71875 5.953125 Z M 11.71875 5.953125 "/></g></g></g><g fill="#ffffff" fill-opacity="1"><g transform="translate(266.47494, 66.937207)"><g><path d="M 17.5625 5.3125 L 7.59375 -1.796875 L 2.015625 1.4375 L 0.046875 0.03125 L 21.03125 -12.015625 L 22.890625 -10.6875 L 18.28125 13.0625 L 16.28125 11.640625 Z M 17.96875 3.296875 L 20.53125 -9.375 L 9.375 -2.84375 Z M 17.96875 3.296875 "/></g></g></g><g fill="#ffffff" fill-opacity="1"><g transform="translate(285.829241, 81.021019)"><g><path d="M 13.265625 2.375 L 7.9375 7.796875 L 6.296875 6.1875 L 11.625 0.765625 L 15.4375 -15.671875 L 17.21875 -13.921875 L 13.9375 0.1875 L 27.96875 -3.34375 L 29.625 -1.71875 Z M 13.265625 2.375 "/></g></g></g></svg>